<?xml version="1.0" encoding="utf-8"?>
<!-- Generator: Adobe Illustrator 22.1.0, SVG Export Plug-In . SVG Version: 6.00 Build 0)  -->
<svg version="1.1" id="Layer_1" xmlns="http://www.w3.org/2000/svg" xmlns:xlink="http://www.w3.org/1999/xlink" x="0px" y="0px"
	 viewBox="0 0 96 96" style="enable-background:new 0 0 96 96;" xml:space="preserve">
<style type="text/css">
	.st0{fill:#FFFFFF;}
</style>
<title>Sell_Page_Icon</title>
<circle class="st0" cx="48" cy="48" r="48"/>
<path d="M71.3,33.3c-0.5-2.1-2.3-3.7-4.5-3.9l-33.6-0.3c0,0-5.2-0.4-6.9,0.2S23,35.5,23,35.5l0.6,22.3c0,0,2.7,4.8,3.9,5.4
	s6.7-0.2,6.7-0.2l-1.5,9.4l0.6,0.6l10.8-9.5c0.8-0.7,1.8-1.1,2.8-1.1c5.2-0.1,21.8-0.3,23.5-1.6c2-1.5,3-6.7,3-6.7
	S72.3,37,71.3,33.3z M40.6,47.1c-1.1,1.1-2.5,1.5-3.6,0.5s-0.8-2.5,0.3-3.6s1.9-1.4,3-0.3S41.6,46.1,40.6,47.1z M48.8,48
	c-1.4,0-2.6-1.2-2.6-2.6c0-1.4,1.1-2.2,2.6-2.2c1.3-0.2,2.4,0.8,2.6,2c0,0.1,0,0.1,0,0.2C51.4,46.8,50.2,48,48.8,48L48.8,48z
	 M58.7,48.1c-1.3,0-2.4-1.1-2.4-2.4c0-1.4,1-2.6,2.4-2.7c1.4,0.2,2.4,1.3,2.4,2.7C61.1,47,60,48.1,58.7,48.1z"/>
</svg>
