<?xml version="1.0" encoding="utf-8"?>
<!-- Generator: Adobe Illustrator 22.1.0, SVG Export Plug-In . SVG Version: 6.00 Build 0)  -->
<svg version="1.1" id="Layer_1" xmlns="http://www.w3.org/2000/svg" xmlns:xlink="http://www.w3.org/1999/xlink" x="0px" y="0px"
	 viewBox="0 0 96 96" style="enable-background:new 0 0 96 96;" xml:space="preserve">
<style type="text/css">
	.st0{fill:#FFFFFF;}
</style>
<title>Sell_Page_Icon</title>
<circle class="st0" cx="48" cy="48" r="48"/>
<path d="M72,34.8l-16.2,0.7L54,47.8l-14.8,1l-1,12.5L23.8,62l-0.5,9L23,76.5l49.5-0.8L72,34.8z M50.9,41.2l0.1-1.6l-2.1,0.1
	l-2.1,0.2l1.7-1.7l1.7-2l0.6-2.3l-1.2-2.8L46.2,30l-3.6,1.2l-1.4,3.5l1.7-0.3l1.5,0.1l0.5-1.3l1.1-0.5l1,0.4l0.3,1l-0.6,1.6
	l-1.5,1.8L43,39.8l-1.9,1.6L41,42v0.5h9.9V41.2z M63.3,28.6l-1.5-0.5l-0.5-1.6l-1.8-0.1l-1.7,0.3l1.9,3.6l3.8,1.1l3.7-0.8l1.8-3.5
	l-0.7-2l-1.9-1L68,23l0.6-2.7l-1.4-1.9L63.5,17l-3.9,1.7L58.1,22h3.4l0.6-1.3l1.2-0.5l1.2,0.4l0.4,1l-0.4,1.1L63.2,23h-1v2.4h1.1
	l1.3,0.4L65,27l-0.4,1.1L63.3,28.6z M29.3,47.3l0.2,4.4l-0.2,4.9h3.9L33,50.1l0.2-6.4l-1.8-0.1h-1.6l-3,2.1v3.1L28,48L29.3,47.3z"/>
</svg>
