<?xml version="1.0" encoding="utf-8"?>
<!-- Generator: Adobe Illustrator 22.1.0, SVG Export Plug-In . SVG Version: 6.00 Build 0)  -->
<svg version="1.1" id="Layer_1" xmlns="http://www.w3.org/2000/svg" xmlns:xlink="http://www.w3.org/1999/xlink" x="0px" y="0px"
	 viewBox="0 0 96 96" style="enable-background:new 0 0 96 96;" xml:space="preserve">
<style type="text/css">
	.st0{fill:#FFFFFF;}
	.st1{fill:#231F20;}
</style>
<title>Sell_Page_Icon</title>
<circle class="st0" cx="48" cy="48" r="48"/>
<path class="st1" d="M36.9,27.6l-5-4.4l-2.1,1.9l5.5,3.9L36.9,27.6z M46.4,22.7l-1-6.5H43l1.6,6.5L46.4,22.7z M60.3,17.2L58.2,16
	l-2.8,6l1.3,0.8L60.3,17.2z M46.9,45.2c-0.8,0.9-1.5,1.8-2.1,2.8c-0.9,1.3-1.9,2.5-3,3.7c-0.2,0.1-0.5-0.6-0.5-0.6s0.3-1.5,0.4-1.6
	s2.7-8.8,2.7-9s0.8-2.5,0.8-2.8s-0.9-0.9-1.2-1c-0.5,0-1,0.1-1.4,0.3c-0.1,0.1-3.9,8.6-4.3,9.4c-0.4,0.9-0.9,1.7-1.5,2.5
	c-0.2,0-0.7-0.6-0.7-0.6s0.8-8,0.9-8.3s1.1-4.6,1.1-5c0-0.5-0.2-1.1-0.6-1.5c-0.6-0.2-1.3-0.1-1.8,0.2c-0.5,0.6-1.9,6-2.2,6.8
	s-1.7,6-2,6.4c-0.2,0.4-0.6,0.5-1,0.4c-0.2,0-1.1-6.2-1.1-6.2c-0.1-0.8-0.2-1.5-0.5-2.3c-0.4-0.4-0.9-0.7-1.5-0.7
	c-0.4,0-1.1,1.2-1.1,1.4s0.1,3.3,0.2,6.4s0,6.1,0,6.2s-0.2,0.8-0.5,0.7s-2.6-1.2-2.9-1.2s-2.4-1.1-2.5-1.1c-0.3,0-0.6,0.1-0.9,0.2
	c-0.3,0.4-0.5,0.8-0.7,1.3c0.2,0.5,0.5,0.9,0.9,1.3c1.4,1.9,3.1,3.9,4.1,5.3c0.9,1.1,1.6,2.2,1.6,2.2s-2.5,7.4-2.5,7.4L35.7,74
	c0.2-0.5,0.4-1,0.6-1.5c0.3-1,0.6-2.3,1-3.4c0.8-2.6,1.3-4.8,1.5-5c0.3-0.3,4.4-5.5,4.5-5.8s0.9-1.9,1-2.3s2.9-6.2,3.4-7.5
	c0.4-0.7,0.7-1.5,0.9-2.4c-0.2-0.3-0.4-0.6-0.6-0.9C47.9,45.2,47.2,45,46.9,45.2L46.9,45.2z M75.6,43.1c0,0-0.6-0.3-0.7-0.3
	s-1.8,0.6-2.2,0.6c-0.9,0.3-1.7,0.7-2.5,1.1c-0.5,0.3-3.3,1.7-3.5,1.7c-0.5,0.1-0.1-0.7,0-0.8c0.4-0.3,1.1-0.7,2.2-1.4
	c0.1,0,0.9-0.4,0.9-0.5s0.3-2.5,0.8-5s0.9-5.1,0.9-5.2S71,32.1,70.6,32c-0.5-0.1-1,0.1-1.3,0.4c-0.3,0.6-0.5,1.2-0.7,1.8
	c0,0-1.5,4.9-1.7,4.9c-0.3,0.1-0.7-0.1-0.8-0.4c-0.1-0.4-0.8-4.8-0.9-5.5c-0.2-2-0.6-3.9-1-5.8c-0.4-0.4-1-0.5-1.5-0.4
	c-0.3,0.3-0.6,0.7-0.7,1.1c0,0.4,0,4.5,0,4.7s0,6.5,0,6.5s-0.5,0.5-0.6,0.4c-0.4-0.7-0.7-1.5-0.9-2.3c-0.2-0.7-2.4-8.1-2.4-8.2
	c-0.3-0.2-0.7-0.4-1.1-0.4c-0.4,0.1-0.8,0.3-1,0.7c0,0.3,0.3,2.2,0.3,2.4s1.2,7.6,1.2,7.7s0.2,1.3,0.2,1.3s-0.3,0.5-0.5,0.4
	c-0.8-1-1.4-2.2-2-3.3c0-0.2-1.2-2.2-1.4-2.5s-0.9-0.1-1-0.1c-0.3,0.2-0.5,0.4-0.6,0.7c0.1,0.7,0.2,1.4,0.4,2.1
	c0.3,1.1,1.8,6.3,1.9,6.6s0.9,3.7,1,3.8s2.8,5,3,5.2s0,0.1,0.3,2.4c0.1,1,0.2,2.1,0.4,2.9s0.3,1.3,0.3,1.3l11-3.3
	c0,0-1.3-6.2-1.2-6.3s0.8-0.8,1.6-1.6c1-1,2.6-2.4,4-3.8c0.3-0.3,0.6-0.6,0.9-1C75.8,43.7,75.6,43.1,75.6,43.1L75.6,43.1z"/>
</svg>
