<svg id="Layer_1" data-name="Layer 1" xmlns="http://www.w3.org/2000/svg" viewBox="0 0 96 96"><defs><style>.cls-1{fill:#d7e6f4;}.cls-2{fill:#232446;}</style></defs><title>Sell_Page_Icon</title><circle class="cls-1" cx="48" cy="48" r="48"/><path class="cls-2" d="M67.58,59.8V22.59L49.21,22S30.34,23.36,29.5,23.19L29,54.7,29.42,75,68,74.07Zm-33.15-9,2.92-.08.42.25v3.15L34.43,54Zm3.42,18.09H34.51V65.49h3.34ZM37,61.24l-2.42.09-.09-3.4,3.34.08.09,3.23Zm8.1,7.64H41.78l.08-3.39h2.42l.75.17.09,2.63Zm-3.26-14.6v-3.4l3.34-.26v3.66ZM42,61.83V58.44h3.34l.25,3.39ZM53.8,69H50.46v-3.4H53.8Zm-.92-7.64-2.42.08L50.38,58l3.34.09.08,3.23ZM50.3,54.11V50.88l2.92-.09.42.26v3.14ZM62.15,69.22l-3.34-.17V63.19l.17-.34L58.81,58l3.34.26Zm0-14.77H58.81l-.16-1.7.16-1.7,3.34.17Zm0-13.25v3.56H56l-8.68-.17-12-.17L34.85,41l.58-12.41,12.78.17,9.27-.08,4.92.34ZM43.53,37.29l-6.35,5.52s.67.34.92.42,5.6-4.16,5.6-4.16l5.68,2.47,2.5-1.87,8.52-6-1-1L49.46,40Z"/></svg>