<?xml version="1.0" encoding="utf-8"?>
<!-- Generator: Adobe Illustrator 22.1.0, SVG Export Plug-In . SVG Version: 6.00 Build 0)  -->
<svg version="1.1" id="Layer_1" xmlns="http://www.w3.org/2000/svg" xmlns:xlink="http://www.w3.org/1999/xlink" x="0px" y="0px"
	 viewBox="0 0 96 96" style="enable-background:new 0 0 96 96;" xml:space="preserve">
<style type="text/css">
	.st0{fill:#FFFFFF;}
</style>
<title>Sell_Page_Icon</title>
<circle class="st0" cx="48" cy="48" r="48"/>
<path d="M67,40.5l-21.1,0.1L31,39l18,14.8l11.1-8.1L67,40.5z"/>
<path d="M48.7,56.7l-10.9-9.1l-7.9-7.5l-0.6,16.7V69l2.7,2l21.1-1l12.4,1l2.6-1V41.4L59.7,49L48.7,56.7z"/>
<path d="M51.4,31.8L54,20.6L51.4,19c0,0-2,13-1.5,13.1C50.4,32.2,51,32.1,51.4,31.8z"/>
<path d="M35.1,22.2l-2.8,1.1l8,9.7c0.9,0.1,0.9,0.1,1.8-0.4L35.1,22.2z"/>
<path d="M20.1,30.3L18,31.6l10.7,5.7c1-0.4,1-0.1,1.5-0.9L20.1,30.3z"/>
<path d="M68.7,25.2l-3.1-0.7l-6.7,7.9c0.8,0.5,0.3,0.1,1,0.8L68.7,25.2z"/>
<path d="M78.8,32.7l0.2-3.1L68.4,37c0.3,0.3,0.6,0.7,0.8,1.1L78.8,32.7z"/>
</svg>
