<svg id="Layer_1" data-name="Layer 1" xmlns="http://www.w3.org/2000/svg" viewBox="0 0 96 96"><defs><style>.cls-1{fill:#d7e6f4;}.cls-2{fill:#232446;}</style></defs><title>Sell_Page_Icon_Great_Value 2</title><circle class="cls-1" cx="48" cy="48" r="48"/><path class="cls-2" d="M53.56,30.62,46,23H34l-3,3.52-6.82,6L24,33V47l3.11,2.54L39.32,61l5.34,5.34L65,46,46.92,68.6,54,75l3.44-3.44,9.33-10.1,8.57-7.8Zm-15.22,7a3.38,3.38,0,0,1-2.94,1,3.36,3.36,0,0,1-1.5-1,3.69,3.69,0,0,1-1.09-1.74,3.27,3.27,0,0,1,3.94-3.45,2.63,2.63,0,0,1,1.59.75,3.27,3.27,0,0,1,1.08,2.43A3.51,3.51,0,0,1,38.34,37.65Z"/></svg>