<?xml version="1.0" encoding="utf-8"?>
<!-- Generator: Adobe Illustrator 22.1.0, SVG Export Plug-In . SVG Version: 6.00 Build 0)  -->
<svg version="1.1" id="Layer_1" xmlns="http://www.w3.org/2000/svg" xmlns:xlink="http://www.w3.org/1999/xlink" x="0px" y="0px"
	 viewBox="0 0 96 96" style="enable-background:new 0 0 96 96;" xml:space="preserve">
<style type="text/css">
	.st0{fill:#D7E6F4;}
	.st1{fill:#232446;}
</style>
<title>Sell_Page_Icon</title>
<circle class="st0" cx="48" cy="48" r="48"/>
<path class="st1" d="M21.9,32.1c0.4,1.4,0.6,36,0.6,36l5.6-2.3l5.5-1.3l5.8,0.1l5,2.2l2.5,1.1l0.3-36l-4.8-3.4l-7.2-1.4l-6,1.5
	L21.9,32.1z"/>
<path class="st1" d="M49.5,31.3l0.8,35.8l1.8,0.8l4.2-2.3l6-1.3l3.5,0.2l5.1,1.4l3.8,1.6l0.2-36.1l-5.1-2.6L64,27.6l-5.4-0.1
	l-4.7,1.6L49.5,31.3z"/>
</svg>
