<?xml version="1.0" encoding="utf-8"?>
<!-- Generator: Adobe Illustrator 22.1.0, SVG Export Plug-In . SVG Version: 6.00 Build 0)  -->
<svg version="1.1" id="Layer_1" xmlns="http://www.w3.org/2000/svg" xmlns:xlink="http://www.w3.org/1999/xlink" x="0px" y="0px"
	 viewBox="0 0 96 96" style="enable-background:new 0 0 96 96;" xml:space="preserve">
<style type="text/css">
	.st0{fill:#FFFFFF;}
	.st1{fill:#222222;}
</style>
<title>Sell_Page_Icon</title>
<circle class="st0" cx="48" cy="48" r="48"/>
<path class="st1" d="M40,69.4v3.7L57.5,73l-0.3-3.9L40,69.4z M54.1,75.1c-0.4,0-11.3,0.6-11.3,0.6l-0.1,3.1h11.5
	C54.2,78.8,54.4,75.1,54.1,75.1z M64.2,21.2L54.4,17H39l-11.2,8.8L26,37.6l2.7,9.3c0,0,7.9,9.4,8.4,10.1s3,5.1,3.1,5.4
	s0.5,4.6,0.5,4.6l7.5-0.3l2.1-0.1l6-0.3l0.4-3.4l3.4-6.5l6-5.1l3.9-9.6c0.2-0.5,0.2-12,0.2-12L64.2,21.2z M48.8,50.6l-1.8-4
	l-9.5,1.8L48,43.2l1.2,3.5l12-3L48.8,50.6z"/>
</svg>
