<svg id="Capa_1" enable-background="new 0 0 510.412 510.412" height="512" viewBox="0 0 510.412 510.412" width="512" xmlns="http://www.w3.org/2000/svg"><g><g><path d="m467.563 133.081c1.688 0 3.056-1.369 3.056-3.057s-1.368-3.056-3.056-3.056-3.056 1.368-3.056 3.056 1.368 3.057 3.056 3.057z"/><path d="m467.563 152.782c1.688 0 3.056-1.368 3.056-3.056s-1.368-3.056-3.056-3.056-3.056 1.368-3.056 3.056 1.368 3.056 3.056 3.056z"/><path d="m467.563 172.484c1.688 0 3.056-1.368 3.056-3.056s-1.368-3.057-3.056-3.057-3.056 1.368-3.056 3.057c0 1.688 1.368 3.056 3.056 3.056z"/><path d="m467.563 192.187c1.688 0 3.056-1.368 3.056-3.056s-1.368-3.057-3.056-3.057-3.056 1.368-3.056 3.057c0 1.687 1.368 3.056 3.056 3.056z"/><path d="m467.563 211.889c1.688 0 3.056-1.368 3.056-3.057 0-1.688-1.368-3.056-3.056-3.056s-3.056 1.368-3.056 3.056 1.368 3.057 3.056 3.057z"/><path d="m458.083 142.561c1.688 0 3.056-1.368 3.056-3.056 0-1.689-1.368-3.057-3.056-3.057s-3.056 1.368-3.056 3.057c0 1.687 1.368 3.056 3.056 3.056z"/><path d="m458.083 162.263c1.688 0 3.056-1.368 3.056-3.056s-1.368-3.057-3.056-3.057-3.056 1.368-3.056 3.057c0 1.688 1.368 3.056 3.056 3.056z"/><path d="m458.083 181.965c1.688 0 3.056-1.368 3.056-3.057 0-1.688-1.368-3.056-3.056-3.056s-3.056 1.368-3.056 3.056c0 1.689 1.368 3.057 3.056 3.057z"/><path d="m447.861 186.074c-1.688 0-3.056 1.368-3.056 3.057 0 1.688 1.368 3.056 3.056 3.056s3.056-1.368 3.056-3.056c0-1.689-1.368-3.057-3.056-3.057z"/><path d="m458.083 201.667c1.688 0 3.056-1.369 3.056-3.057s-1.368-3.056-3.056-3.056-3.056 1.368-3.056 3.056 1.368 3.057 3.056 3.057z"/><path d="m447.861 205.776c-1.688 0-3.056 1.368-3.056 3.056s1.368 3.057 3.056 3.057 3.056-1.368 3.056-3.057c0-1.687-1.368-3.056-3.056-3.056z"/><path d="m458.083 221.368c1.688 0 3.056-1.368 3.056-3.056s-1.368-3.056-3.056-3.056-3.056 1.368-3.056 3.056 1.368 3.056 3.056 3.056z"/><path d="m447.861 225.479c-1.688 0-3.056 1.368-3.056 3.056s1.368 3.057 3.056 3.057 3.056-1.369 3.056-3.057-1.368-3.056-3.056-3.056z"/><path d="m458.083 241.07c1.688 0 3.056-1.368 3.056-3.056s-1.368-3.057-3.056-3.057-3.056 1.369-3.056 3.057 1.368 3.056 3.056 3.056z"/><path d="m447.861 245.181c-1.688 0-3.056 1.368-3.056 3.056s1.368 3.056 3.056 3.056 3.056-1.368 3.056-3.056-1.368-3.056-3.056-3.056z"/><path d="m458.083 260.772c1.688 0 3.056-1.368 3.056-3.056s-1.368-3.057-3.056-3.057-3.056 1.368-3.056 3.057c0 1.688 1.368 3.056 3.056 3.056z"/><path d="m447.861 264.882c-1.688 0-3.056 1.369-3.056 3.057s1.368 3.056 3.056 3.056 3.056-1.368 3.056-3.056-1.368-3.057-3.056-3.057z"/><path d="m458.083 280.475c1.688 0 3.056-1.368 3.056-3.057 0-1.688-1.368-3.056-3.056-3.056s-3.056 1.368-3.056 3.056 1.368 3.057 3.056 3.057z"/><path d="m447.861 284.584c-1.688 0-3.056 1.368-3.056 3.057 0 1.688 1.368 3.056 3.056 3.056s3.056-1.368 3.056-3.056c0-1.689-1.368-3.057-3.056-3.057z"/><path d="m438.381 254.66c-1.688 0-3.056 1.368-3.056 3.057 0 1.688 1.368 3.056 3.056 3.056s3.056-1.368 3.056-3.056c0-1.689-1.368-3.057-3.056-3.057z"/><path d="m428.159 270.994c1.688 0 3.056-1.368 3.056-3.056s-1.368-3.057-3.056-3.057-3.056 1.369-3.056 3.057 1.368 3.056 3.056 3.056z"/><path d="m438.381 274.362c-1.688 0-3.056 1.368-3.056 3.056 0 1.689 1.368 3.057 3.056 3.057s3.056-1.368 3.056-3.057c0-1.688-1.368-3.056-3.056-3.056z"/><path d="m428.159 290.696c1.688 0 3.056-1.368 3.056-3.056 0-1.689-1.368-3.057-3.056-3.057s-3.056 1.368-3.056 3.057c0 1.688 1.368 3.056 3.056 3.056z"/><path d="m405.401 267.938c0 1.688 1.368 3.056 3.056 3.056s3.056-1.368 3.056-3.056-1.368-3.057-3.056-3.057c-1.687.001-3.056 1.37-3.056 3.057z"/><path d="m418.679 280.475c1.688 0 3.056-1.368 3.056-3.057 0-1.688-1.368-3.056-3.056-3.056s-3.056 1.368-3.056 3.056 1.368 3.057 3.056 3.057z"/><path d="m408.457 284.584c-1.688 0-3.056 1.368-3.056 3.057 0 1.688 1.368 3.056 3.056 3.056s3.056-1.368 3.056-3.056c0-1.689-1.368-3.057-3.056-3.057z"/><path d="m388.755 264.882c-1.688 0-3.056 1.369-3.056 3.057s1.368 3.056 3.056 3.056 3.056-1.368 3.056-3.056-1.368-3.057-3.056-3.057z"/><path d="m398.977 274.362c-1.688 0-3.056 1.368-3.056 3.056 0 1.689 1.368 3.057 3.056 3.057s3.056-1.368 3.056-3.057c0-1.688-1.368-3.056-3.056-3.056z"/><path d="m388.755 284.584c-1.688 0-3.056 1.368-3.056 3.057 0 1.688 1.368 3.056 3.056 3.056s3.056-1.368 3.056-3.056c0-1.689-1.368-3.057-3.056-3.057z"/><path d="m369.053 264.882c-1.688 0-3.056 1.369-3.056 3.057s1.368 3.056 3.056 3.056 3.056-1.368 3.056-3.056-1.368-3.057-3.056-3.057z"/><path d="m379.275 274.362c-1.688 0-3.056 1.368-3.056 3.056 0 1.689 1.368 3.057 3.056 3.057s3.056-1.368 3.056-3.057c0-1.688-1.368-3.056-3.056-3.056z"/><path d="m369.053 284.584c-1.688 0-3.056 1.368-3.056 3.057 0 1.688 1.368 3.056 3.056 3.056s3.056-1.368 3.056-3.056c0-1.689-1.368-3.057-3.056-3.057z"/><path d="m349.351 264.882c-1.688 0-3.056 1.369-3.056 3.057s1.368 3.056 3.056 3.056 3.056-1.368 3.056-3.056-1.368-3.057-3.056-3.057z"/><path d="m359.573 274.362c-1.688 0-3.056 1.368-3.056 3.056 0 1.689 1.368 3.057 3.056 3.057s3.056-1.368 3.056-3.057c0-1.688-1.368-3.056-3.056-3.056z"/><path d="m349.351 284.584c-1.688 0-3.056 1.368-3.056 3.057 0 1.688 1.368 3.056 3.056 3.056s3.056-1.368 3.056-3.056c0-1.689-1.368-3.057-3.056-3.057z"/><path d="m329.649 264.882c-1.688 0-3.056 1.369-3.056 3.057s1.368 3.056 3.056 3.056 3.056-1.368 3.056-3.056-1.368-3.057-3.056-3.057z"/><path d="m339.871 274.362c-1.688 0-3.056 1.368-3.056 3.056 0 1.689 1.368 3.057 3.056 3.057s3.056-1.368 3.056-3.057c0-1.688-1.368-3.056-3.056-3.056z"/><path d="m329.649 284.584c-1.688 0-3.056 1.368-3.056 3.057 0 1.688 1.368 3.056 3.056 3.056s3.056-1.368 3.056-3.056c0-1.689-1.368-3.057-3.056-3.057z"/><path d="m309.948 264.882c-1.688 0-3.056 1.369-3.056 3.057s1.368 3.056 3.056 3.056 3.056-1.368 3.056-3.056-1.369-3.057-3.056-3.057z"/><path d="m320.169 274.362c-1.688 0-3.056 1.368-3.056 3.056 0 1.689 1.368 3.057 3.056 3.057s3.056-1.368 3.056-3.057c0-1.688-1.368-3.056-3.056-3.056z"/><path d="m309.948 284.584c-1.688 0-3.056 1.368-3.056 3.057 0 1.688 1.368 3.056 3.056 3.056s3.056-1.368 3.056-3.056c-.001-1.689-1.369-3.057-3.056-3.057z"/><path d="m290.246 264.882c-1.688 0-3.056 1.369-3.056 3.057s1.368 3.056 3.056 3.056 3.056-1.368 3.056-3.056-1.369-3.057-3.056-3.057z"/><path d="m300.467 274.362c-1.688 0-3.056 1.368-3.056 3.056 0 1.689 1.368 3.057 3.056 3.057s3.056-1.368 3.056-3.057c0-1.688-1.368-3.056-3.056-3.056z"/><path d="m290.246 284.584c-1.688 0-3.056 1.368-3.056 3.057 0 1.688 1.368 3.056 3.056 3.056s3.056-1.368 3.056-3.056c0-1.689-1.369-3.057-3.056-3.057z"/><path d="m270.543 264.882c-1.688 0-3.056 1.369-3.056 3.057s1.368 3.056 3.056 3.056 3.056-1.368 3.056-3.056-1.367-3.057-3.056-3.057z"/><path d="m280.765 274.362c-1.688 0-3.056 1.368-3.056 3.056 0 1.689 1.368 3.057 3.056 3.057s3.056-1.368 3.056-3.057c.001-1.688-1.368-3.056-3.056-3.056z"/><path d="m270.543 284.584c-1.688 0-3.056 1.368-3.056 3.057 0 1.688 1.368 3.056 3.056 3.056s3.056-1.368 3.056-3.056c.001-1.689-1.367-3.057-3.056-3.057z"/><path d="m250.842 264.882c-1.688 0-3.056 1.369-3.056 3.057s1.368 3.056 3.056 3.056 3.056-1.368 3.056-3.056-1.369-3.057-3.056-3.057z"/><path d="m261.064 274.362c-1.688 0-3.056 1.368-3.056 3.056 0 1.689 1.368 3.057 3.056 3.057s3.056-1.368 3.056-3.057c0-1.688-1.369-3.056-3.056-3.056z"/><path d="m250.842 284.584c-1.688 0-3.056 1.368-3.056 3.057 0 1.688 1.368 3.056 3.056 3.056s3.056-1.368 3.056-3.056c0-1.689-1.369-3.057-3.056-3.057z"/><path d="m231.14 264.882c-1.688 0-3.056 1.369-3.056 3.057s1.368 3.056 3.056 3.056 3.056-1.368 3.056-3.056-1.369-3.057-3.056-3.057z"/><path d="m241.361 274.362c-1.688 0-3.056 1.368-3.056 3.056 0 1.689 1.368 3.057 3.056 3.057s3.056-1.368 3.056-3.057c0-1.688-1.368-3.056-3.056-3.056z"/><path d="m231.14 284.584c-1.688 0-3.056 1.368-3.056 3.057 0 1.688 1.368 3.056 3.056 3.056s3.056-1.368 3.056-3.056c0-1.689-1.369-3.057-3.056-3.057z"/><path d="m211.438 264.882c-1.688 0-3.056 1.369-3.056 3.057s1.368 3.056 3.056 3.056 3.056-1.368 3.056-3.056-1.368-3.057-3.056-3.057z"/><path d="m221.659 274.362c-1.688 0-3.056 1.368-3.056 3.056 0 1.689 1.368 3.057 3.056 3.057s3.056-1.368 3.056-3.057c.001-1.688-1.368-3.056-3.056-3.056z"/><path d="m211.438 284.584c-1.688 0-3.056 1.368-3.056 3.057 0 1.688 1.368 3.056 3.056 3.056s3.056-1.368 3.056-3.056c0-1.689-1.368-3.057-3.056-3.057z"/><path d="m191.736 264.882c-1.688 0-3.056 1.369-3.056 3.057s1.368 3.056 3.056 3.056 3.056-1.368 3.056-3.056-1.369-3.057-3.056-3.057z"/><path d="m201.958 274.362c-1.688 0-3.056 1.368-3.056 3.056 0 1.689 1.368 3.057 3.056 3.057s3.056-1.368 3.056-3.057c0-1.688-1.369-3.056-3.056-3.056z"/><path d="m191.736 284.584c-1.688 0-3.056 1.368-3.056 3.057 0 1.688 1.368 3.056 3.056 3.056s3.056-1.368 3.056-3.056c0-1.689-1.369-3.057-3.056-3.057z"/><path d="m182.256 274.362c-1.688 0-3.056 1.368-3.056 3.056 0 1.689 1.368 3.057 3.056 3.057s3.056-1.368 3.056-3.057c-.001-1.688-1.369-3.056-3.056-3.056z"/><path d="m447.788 152.809c1.688 0 3.056-1.369 3.056-3.057s-1.369-3.057-3.056-3.057c-1.688 0-3.056 1.369-3.056 3.057s1.368 3.057 3.056 3.057z"/><path d="m447.788 172.512c1.688 0 3.056-1.368 3.056-3.056 0-1.689-1.369-3.057-3.056-3.057-1.688 0-3.056 1.368-3.056 3.057 0 1.688 1.368 3.056 3.056 3.056z"/><path d="m438.292 241.117c1.688 0 3.056-1.368 3.056-3.056 0-1.689-1.368-3.057-3.056-3.057s-3.056 1.368-3.056 3.057c0 1.688 1.368 3.056 3.056 3.056z"/><path d="m488.717 79.022h-93.966c-17.855-30.728-51.133-51.434-89.158-51.434-38.026 0-71.303 20.706-89.158 51.434h-99.882l-4.144-13.903c-2.533-9.996-11.488-16.969-21.81-16.969h-68.099c-12.406 0-22.5 10.094-22.5 22.5s10.094 22.5 22.5 22.5h50.675l62.725 206.831 2.768 66.368c.011.27.05.537.114.8 2.502 10.046 11.48 17.061 21.833 17.061h37.708c-19.661 7.008-33.776 25.802-33.776 47.838 0 27.997 22.777 50.774 50.775 50.774 27.997 0 50.774-22.777 50.774-50.774 0-22.036-14.115-40.83-33.775-47.838h157.833c-19.661 7.008-33.775 25.802-33.775 47.838 0 27.997 22.777 50.774 50.774 50.774s50.774-22.777 50.774-50.774c0-22.036-14.115-40.83-33.775-47.838h35.985c12.406 0 22.5-10.094 22.5-22.5s-10.094-22.5-22.5-22.5h-278.153l-.147-39.868h266.09c11.89 0 21.962-8.509 23.947-20.232.012-.065.021-.13.028-.194l18.662-156.587c11.1-.942 19.846-10.271 19.846-21.611.002-11.963-9.73-21.696-21.693-21.696zm-183.124-43.433c52.407 0 95.043 42.637 95.043 95.044s-42.636 95.043-95.043 95.043-95.043-42.636-95.043-95.043 42.636-95.044 95.043-95.044zm-93.345 51.433c-4.014 8.559-6.887 17.753-8.417 27.391h-76.729l-8.165-27.391zm23.232 345.027c0 11.114-9.043 20.157-20.157 20.157-11.115 0-20.158-9.043-20.158-20.157 0-11.115 9.043-20.158 20.158-20.158s20.157 9.043 20.157 20.158zm191.832 0c0 11.114-9.043 20.157-20.158 20.157s-20.158-9.043-20.158-20.157c0-11.115 9.043-20.158 20.158-20.158s20.158 9.043 20.158 20.158zm32.827-84.838c7.995 0 14.5 6.505 14.5 14.5s-6.505 14.5-14.5 14.5h-299.524c-6.544 0-12.235-4.351-13.973-10.625l-2.77-66.446c-.014-.337-.07-.671-.168-.994l-63.734-210.157c-.512-1.686-2.066-2.839-3.828-2.839h-53.642c-7.995 0-14.5-6.505-14.5-14.5s6.505-14.5 14.5-14.5h68.099c6.672 0 12.458 4.521 14.069 10.995.015.059.031.117.049.176l69.12 231.887.162 44.018c.008 2.203 1.797 3.985 4 3.985zm20.464-208.889c-.462-1.102-1.55-1.874-2.818-1.874-1.688 0-3.056 1.368-3.056 3.057 0 1.688 1.368 3.056 3.056 3.056 1.015 0 1.908-.5 2.463-1.262l-1.78 14.935c-.22-.051-.447-.083-.683-.083-1.688 0-3.056 1.368-3.056 3.057 0 1.676 1.35 3.033 3.021 3.052l-7.69 64.521c-.553-.785-1.463-1.302-2.497-1.302-1.688 0-3.056 1.368-3.056 3.056s1.368 3.057 3.056 3.057c.776 0 1.477-.299 2.016-.776l-1.716 14.396c-.1-.01-.198-.03-.301-.03-1.688 0-3.056 1.368-3.056 3.056 0 1.544 1.149 2.808 2.637 3.014l-3.172 26.615c-1.368 7.815-8.101 13.477-16.044 13.477h-268.087l-6.204-20.814c.869-.538 1.454-1.493 1.454-2.591 0-1.688-1.368-3.057-3.056-3.057-.027 0-.052.007-.078.008l-42.469-142.477h73.392c-.215 2.712-.328 5.453-.328 8.22 0 56.818 46.225 103.043 103.043 103.043s103.043-46.225 103.043-103.043c0-2.767-.113-5.508-.328-8.22h74.192zm8.114-23.909h-81.362c-1.53-9.638-4.403-18.832-8.417-27.391h89.779c7.552 0 13.695 6.144 13.695 13.695 0 7.553-6.143 13.696-13.695 13.696zm-40.929 12.556c-1.688 0-3.056 1.368-3.056 3.057 0 1.688 1.368 3.056 3.056 3.056s3.056-1.368 3.056-3.056c0-1.689-1.369-3.057-3.056-3.057z"/></g><g><path d="m294.054 181.896c-3.177 0-6.163-1.237-8.409-3.483l-11.161-11.162c-.152-.151-.293-.308-.433-.466l-32.926-33.03c-4.631-4.633-4.631-12.178.004-16.814l11.162-11.161c4.636-4.636 12.18-4.637 16.817-.001l24.976 25.055 47.987-47.987c4.636-4.636 12.18-4.637 16.817-.001l11.161 11.163c2.246 2.246 3.483 5.232 3.483 8.409 0 3.176-1.237 6.162-3.483 8.408l-67.588 67.588c-2.245 2.245-5.231 3.482-8.407 3.482zm-33.353-71.598c-.997 0-1.994.379-2.754 1.139l-11.161 11.16c-1.517 1.518-1.517 3.988.001 5.506l33.362 33.501 11.093 11.095c.794.793 1.771 1.198 2.811 1.198 1.039 0 2.017-.405 2.752-1.14l67.588-67.588c1.518-1.518 1.518-3.987 0-5.505l-11.161-11.162c-1.518-1.517-3.987-1.516-5.505.001l-53.653 53.652-30.627-30.724c-.756-.756-1.75-1.133-2.746-1.133z"/></g></g></svg>